<svg xmlns="http://www.w3.org/2000/svg" width="182" height="15" fill="none"><path fill="#545454" d="M7.233 14.204c3.74 0 6.763-3.023 6.75-6.75-.013-3.726-3.01-6.75-6.75-6.75-3.714 0-6.737 3.024-6.75 6.75-.013 3.727 3.036 6.75 6.75 6.75Zm0-1.482c-2.908 0-5.28-2.372-5.267-5.261.013-2.908 2.371-5.274 5.267-5.274 2.908 0 5.254 2.353 5.267 5.274.013 2.902-2.346 5.26-5.267 5.26ZM3.5 7.455c0 2.096 1.7 3.796 3.797 3.796 1.815 0 3.209-1.278 3.452-2.978H9.202c-.18.875-.92 1.495-1.905 1.495a2.313 2.313 0 1 1 0-4.627c.984 0 1.86.62 2.033 1.495h1.546c-.242-1.7-1.764-2.978-3.58-2.978A3.797 3.797 0 0 0 3.5 7.455ZM21.888 14h8.259v-1.406h-6.085v-.102l2.94-3.145c2.25-2.41 2.915-3.535 2.915-4.986 0-2.02-1.637-3.63-3.938-3.63-2.294 0-4.04 1.559-4.04 3.86h1.509c0-1.49.965-2.48 2.48-2.48 1.42 0 2.506.87 2.506 2.25 0 1.208-.71 2.103-2.225 3.758l-4.32 4.73V14Zm15.169.179c2.889 0 4.55-2.448 4.55-6.724 0-4.245-1.687-6.725-4.55-6.725-2.864 0-4.552 2.48-4.552 6.725 0 4.276 1.662 6.724 4.552 6.724Zm0-1.406c-1.905 0-3.017-1.912-3.017-5.318 0-3.401 1.125-5.344 3.017-5.344s3.017 1.943 3.017 5.344c0 3.406-1.112 5.318-3.017 5.318ZM44.037 14h8.258v-1.406H46.21v-.102l2.94-3.145c2.25-2.41 2.915-3.535 2.915-4.986 0-2.02-1.636-3.63-3.937-3.63-2.295 0-4.04 1.559-4.04 3.86h1.508c0-1.49.966-2.48 2.48-2.48 1.42 0 2.506.87 2.506 2.25 0 1.208-.71 2.103-2.224 3.758l-4.321 4.73V14Zm15.168.179c2.89 0 4.551-2.448 4.551-6.724 0-4.245-1.687-6.725-4.55-6.725-2.865 0-4.552 2.48-4.552 6.725 0 4.276 1.662 6.724 4.551 6.724Zm0-1.406c-1.905 0-3.017-1.912-3.017-5.318 0-3.401 1.125-5.344 3.017-5.344s3.017 1.943 3.017 5.344c0 3.406-1.112 5.318-3.017 5.318ZM71.478.909V14h1.483V4.054h.128L77.179 14h1.432l4.091-9.946h.128V14h1.483V.91h-1.892l-4.449 10.866h-.153L73.369.909h-1.891Zm19.925 13.295c1.995 0 3.452-.997 3.912-2.48l-1.457-.409c-.384 1.023-1.272 1.534-2.455 1.534-1.77 0-2.991-1.144-3.061-3.247h7.127v-.639c0-3.656-2.173-4.909-4.219-4.909-2.66 0-4.423 2.097-4.423 5.114s1.738 5.037 4.576 5.037Zm-3.061-5.906c.102-1.527 1.182-2.889 2.908-2.889 1.636 0 2.685 1.227 2.685 2.89h-5.593Zm16.376-1.917c-.473-1.394-1.534-2.327-3.477-2.327-2.071 0-3.605 1.176-3.605 2.838 0 1.355.805 2.263 2.608 2.685l1.636.383c.991.23 1.457.703 1.457 1.38 0 .845-.895 1.535-2.301 1.535-1.233 0-2.007-.53-2.275-1.585l-1.432.358c.351 1.668 1.726 2.556 3.733 2.556 2.282 0 3.835-1.246 3.835-2.94 0-1.368-.857-2.23-2.608-2.659l-1.457-.358c-1.164-.287-1.688-.677-1.688-1.432 0-.843.895-1.457 2.097-1.457 1.317 0 1.86.729 2.122 1.406l1.355-.383Zm6.72-2.2h-2.097V1.83h-1.508v2.352h-1.483V5.46h1.483v6.137c0 1.713 1.38 2.53 2.659 2.53.562 0 .92-.101 1.125-.178l-.307-1.355c-.128.025-.333.077-.665.077-.665 0-1.304-.205-1.304-1.483V5.46h2.097V4.182Zm6.152 10.023c2.659 0 4.449-2.02 4.449-5.062 0-3.068-1.79-5.088-4.449-5.088s-4.449 2.02-4.449 5.088c0 3.043 1.79 5.063 4.449 5.063Zm0-1.355c-2.02 0-2.94-1.738-2.94-3.707 0-1.969.92-3.733 2.94-3.733s2.94 1.764 2.94 3.733-.92 3.707-2.94 3.707ZM129.609 14h1.585V8.886h2.864c.115 0 .223 0 .332-.006l2.761 5.12h1.841l-2.959-5.408c1.668-.569 2.448-1.93 2.448-3.669 0-2.314-1.381-4.014-4.449-4.014h-4.423V14Zm1.585-6.545v-5.14h2.787c2.122 0 2.94 1.036 2.94 2.608 0 1.573-.818 2.532-2.915 2.532h-2.812Zm15.911 2.53c0 1.842-1.406 2.686-2.531 2.686-1.253 0-2.148-.921-2.148-2.353V4.182h-1.508v6.239c0 2.505 1.329 3.707 3.17 3.707 1.483 0 2.455-.793 2.915-1.79h.102V14h1.509V4.182h-1.509v5.804Zm11.226-3.604c-.473-1.394-1.534-2.327-3.477-2.327-2.071 0-3.605 1.176-3.605 2.838 0 1.355.805 2.263 2.608 2.685l1.636.383c.991.23 1.458.703 1.458 1.38 0 .845-.895 1.535-2.301 1.535-1.234 0-2.008-.53-2.276-1.585l-1.432.358c.352 1.668 1.726 2.556 3.733 2.556 2.282 0 3.835-1.246 3.835-2.94 0-1.368-.856-2.23-2.608-2.659l-1.457-.358c-1.163-.287-1.688-.677-1.688-1.432 0-.843.895-1.457 2.097-1.457 1.317 0 1.86.729 2.122 1.406l1.355-.383Zm9.405 0c-.473-1.394-1.534-2.327-3.478-2.327-2.071 0-3.605 1.176-3.605 2.838 0 1.355.806 2.263 2.608 2.685l1.637.383c.99.23 1.457.703 1.457 1.38 0 .845-.895 1.535-2.301 1.535-1.234 0-2.007-.53-2.276-1.585l-1.432.358c.352 1.668 1.726 2.556 3.733 2.556 2.282 0 3.836-1.246 3.836-2.94 0-1.368-.857-2.23-2.608-2.659l-1.458-.358c-1.163-.287-1.687-.677-1.687-1.432 0-.843.895-1.457 2.096-1.457 1.317 0 1.86.729 2.123 1.406l1.355-.383ZM170.185 14h1.509V4.182h-1.509V14Zm.767-11.455c.588 0 1.074-.46 1.074-1.022 0-.563-.486-1.023-1.074-1.023-.588 0-1.073.46-1.073 1.023 0 .562.485 1.022 1.073 1.022Zm6.394 11.685c1.713 0 2.608-.92 2.915-1.56h.077V14h1.508V7.531c0-3.12-2.378-3.477-3.631-3.477-1.483 0-3.17.511-3.937 2.301l1.432.511c.332-.715 1.118-1.482 2.557-1.482 1.387 0 2.071.735 2.071 1.994v.051c0 .729-.742.665-2.532.895-1.821.236-3.809.64-3.809 2.89 0 1.917 1.483 3.016 3.349 3.016Zm.23-1.355c-1.202 0-2.071-.537-2.071-1.585 0-1.15 1.048-1.509 2.225-1.662.639-.077 2.352-.256 2.608-.563v1.381c0 1.227-.972 2.429-2.762 2.429Z"/></svg>